# xmcd
#
# Track frame offsets:
#       150
#       16985
#       31768
#       47097
#       60983
#       74519
#       89184
#       101581
#       114520
#       130616
#       143485
#       160807
#       175539
#       192518
#
# Disc length: 2761 seconds
#
# Revision: 1
# Processed by: cddbd v1.5.1PL0 Copyright (c) Steve Scherf et al.
# Submitted via: MusiCat 1.1
#
DISCID=b50ac70e
DTITLE=Música gaúcha - Zé Araújo
DYEAR=1900
DGENRE=
TTITLE0=Marca farrapa
TTITLE1=Fandango galponeiro
TTITLE2=Rasga trapo
TTITLE3=Rio grande
TTITLE4=Saracoteando a rancheira
TTITLE5=Orelhano pelo duro
TTITLE6=Churrasco
TTITLE7=Peão
TTITLE8=Tio gonçalino
TTITLE9=Queimando calorias
TTITLE10=Acordes xucros
TTITLE11=Solito no rancho
TTITLE12=Pendenga de galo
TTITLE13=Tombo
EXTD=\n\n
EXTT0=
EXTT1=
EXTT2=
EXTT3=
EXTT4=
EXTT5=
EXTT6=
EXTT7=
EXTT8=
EXTT9=
EXTT10=
EXTT11=
EXTT12=
EXTT13=
PLAYORDER=
